PathFileType	4	(X/Y/Z)	D:\TRACE\v60_Jaco2_6-2-23\JustBodyDRS_Motion2_3-v60.trc
DataRate	CameraRate	NumFrames	NumMarkers	Units	OrigDataRate	OrigDataStartFrame	OrigNumFrames
100.00	100.00	      24	9	mm	100.00	1	      6834
Frame#	Time	front left toe			Front right toe			aft left toe			aft right toe			Arm			FL body			FR body			AL Body			AR Body			
		X1	Y1	Z1	X2	Y2	Z2	X3	Y3	Z3	X4	Y4	Z4	X5	Y5	Z5	X6	Y6	Z6	X7	Y7	Z7	X8	Y8	Z8	X9	Y9	Z9	

1	0.000	-256.69614	19.74930	-306.56927	156.71059	18.61962	-303.22873	-258.03891	14.85763	334.80966	145.80313	18.11576	304.13916	-159.03003	1219.48462	-438.45847	-133.04518	587.56110	-431.96896	27.04242	587.46954	-432.45020	-129.69151	588.59021	514.77106	28.39791	582.50903	516.59186	
2	0.010	-256.63968	19.76136	-306.52710	156.79033	18.68271	-303.27814	-258.01779	14.87847	334.83447	145.95941	18.16047	304.16513	-159.04491	1219.49792	-438.53146	-133.04709	587.57513	-431.93829	27.01821	587.47711	-432.46600	-129.65131	588.59528	514.79370	28.46727	582.48584	516.61444	
3	0.020	-256.64630	19.75288	-306.63458	156.76236	18.68447	-303.22803	-258.04233	14.83455	334.84189	145.86790	18.11625	304.12155	-159.05397	1219.49304	-438.53848	-133.08978	587.60968	-431.93698	27.06573	587.48328	-432.43796	-129.68457	588.57837	514.77417	28.27101	582.28436	515.84552	
4	0.030	-256.63544	19.74158	-306.59500	156.80504	18.68239	-303.25708	-258.03937	14.83676	334.82608	145.97458	18.15481	304.18167	-159.05182	1219.46045	-438.50485	-133.05838	587.56342	-431.93927	27.40800	587.59216	-432.64728	-129.65948	588.57202	514.78125	28.35807	582.27802	515.81763	
5	0.040	-256.63901	19.75607	-306.59518	156.72581	18.64277	-303.24002	-258.01529	14.84874	334.85315	145.91586	18.13771	304.18991	-159.09702	1219.47583	-438.50742	-133.02222	587.57086	-431.93762	27.36919	587.59393	-432.66092	-129.66446	588.56293	514.77209	28.46841	582.51965	516.62488	
6	0.050	-256.63455	19.76208	-306.62457	156.76834	18.67210	-303.26276	-258.04150	14.85843	334.84055	145.87369	18.14627	304.12842	-158.98955	1219.47852	-438.44571	-133.04674	587.56750	-431.94327	27.04630	587.43738	-432.44241	-129.61263	588.57495	514.76465	28.49597	582.50903	516.60413	
7	0.060	-256.62946	19.74137	-306.59787	156.76917	18.67962	-303.22217	-258.02539	14.84873	334.85028	145.87505	18.14206	304.13022	-158.95786	1219.47632	-438.45132	-133.05103	587.57727	-431.95361	27.00204	587.46051	-432.47003	-129.71443	588.59698	514.75067	28.29314	582.30408	515.82007	
8	0.070	-256.64264	19.73768	-306.61194	156.82932	18.69255	-303.24619	-258.04596	14.84345	334.83490	145.92976	18.19907	304.15640	-159.01868	1219.49023	-438.52435	-133.00279	587.56287	-431.91742	27.12301	587.44800	-432.44101	-129.69044	588.60406	514.76422	28.32212	582.29370	515.81311	
9	0.080	-256.63931	19.76697	-306.62595	156.76436	18.67908	-303.24924	-258.03326	14.85478	334.82700	145.86887	18.13969	304.14465	-159.09789	1219.49341	-438.52359	-133.04060	587.57391	-431.90106	27.06779	587.46429	-432.44928	-129.65529	588.59601	514.77142	28.47274	582.50079	516.60181	
10	0.090	-256.63641	19.74170	-306.58871	156.82271	18.71042	-303.21735	-258.01413	14.86576	334.84064	145.92731	18.17134	304.15244	-158.94815	1219.47229	-438.44135	-133.01802	587.54175	-431.93585	27.11246	587.44641	-432.43753	-129.68105	588.56775	514.76465	28.38119	582.27380	515.81750	
11	0.100	-256.63980	19.73914	-306.59689	156.79265	18.67737	-303.24655	-258.05453	14.88539	334.81140	145.91292	18.15627	304.15225	-158.97458	1219.43542	-438.45020	-133.02234	587.55585	-431.95016	27.11513	587.43884	-432.44467	-129.68272	588.59119	514.78308	28.45454	582.53210	516.59192	
12	0.110	-256.63382	19.75293	-306.60602	156.85448	18.72038	-303.27292	-258.00137	14.83620	334.86539	145.95889	18.14158	304.10614	-159.05974	1219.49780	-438.55276	-133.04660	587.55219	-431.94333	27.39694	587.59662	-432.67590	-129.71187	588.56085	514.76801	28.45364	582.46057	516.56158	
13	0.120	-256.63010	19.75947	-306.57849	156.86519	18.71082	-303.24841	-258.02881	14.83883	334.83563	145.91347	18.14703	304.15225	-158.99228	1219.47363	-438.50644	-133.04091	587.56885	-431.95798	27.32308	587.59692	-432.72818	-129.67598	588.59338	514.77051	28.48766	582.52448	516.56720	
14	0.130	-256.66904	19.76521	-306.57440	156.81709	18.68793	-303.23999	-258.01669	14.83875	334.84244	145.92543	18.14196	304.17349	-159.03670	1219.49121	-438.50388	-132.97186	587.52295	-431.93857	27.32334	587.61914	-432.69308	-129.67462	588.57355	514.75610	28.36673	582.27167	515.81500	
15	0.140	-256.63831	19.76217	-306.56198	156.80592	18.69403	-303.21643	-258.00531	14.85718	334.85516	145.86247	18.11649	304.14545	-159.05782	1219.47961	-438.49973	-133.01793	587.56238	-431.93158	27.09702	587.46722	-432.44754	-129.68515	588.58502	514.75952	28.34884	582.27698	515.82507	
16	0.150	-256.62793	19.78059	-306.60837	156.79010	18.64570	-303.22086	-258.03815	14.87696	334.82605	145.93369	18.11933	304.17563	-159.00455	1219.46643	-438.48849	-132.94077	587.53668	-431.93069	27.02033	587.47064	-432.45676	-129.67998	588.58685	514.76471	28.52318	582.42517	516.57190	
17	0.160	-256.63538	19.76057	-306.60095	156.77094	18.66357	-303.22446	-258.05060	14.82631	334.85431	145.89070	18.14618	304.12650	-159.07603	1219.46509	-438.52777	-133.00150	587.55432	-431.99588	27.12073	587.43817	-432.45056	-129.69923	588.59882	514.77814	28.46401	582.47961	516.56378	
18	0.170	-256.63828	19.74030	-306.57559	156.82277	18.69813	-303.23618	-258.03265	14.83327	334.85938	145.92514	18.13495	304.09488	-158.96010	1219.52222	-438.50278	-133.02019	587.54669	-431.96600	27.05989	587.45776	-432.46149	-129.65697	588.60144	514.75464	28.37858	582.29523	515.80566	
19	0.180	-256.62073	19.75330	-306.61362	156.81583	18.68984	-303.27213	-258.00934	14.83987	334.83041	145.89655	18.14148	304.11475	-158.97449	1219.51086	-438.44598	-133.01183	587.55310	-431.93585	27.14543	587.45795	-432.42639	-129.63756	588.61768	514.76556	28.45116	582.51715	516.56543	
20	0.190	-256.62302	19.78157	-306.57089	156.80966	18.70779	-303.20868	-258.03949	14.85232	334.84061	145.89418	18.15942	304.15689	-159.00635	1219.49646	-438.44501	-132.96974	587.54175	-431.93460	27.11058	587.45575	-432.45886	-129.64714	588.57196	514.76050	28.48198	582.47894	516.56506	
21	0.200	-256.60934	19.75371	-306.60013	156.86456	18.69225	-303.20770	-258.01907	14.85154	334.84314	145.93216	18.11966	304.12015	-159.47131	1218.96655	-438.36020	-133.02342	587.55157	-431.94339	27.12341	587.45410	-432.43896	-129.64758	588.56689	514.78809	28.35257	582.28021	515.79919	
22	0.210	-256.64496	19.74705	-306.58359	156.75424	18.67203	-303.23767	-257.99866	14.87314	334.82941	145.93227	18.18210	304.19006	-159.56956	1218.96887	-438.37625	-133.03285	587.54517	-431.97537	27.15744	587.43976	-432.42575	-129.68964	588.57910	514.76343	28.45785	582.48413	516.57440	
23	0.220	-256.65009	19.74083	-306.58090	156.81030	18.67719	-303.24890	-258.03220	14.82846	334.82822	145.91405	18.13200	304.09647	-159.40897	1218.98560	-438.41931	-132.97878	587.55255	-431.93634	27.10745	587.47076	-432.43826	-129.68819	588.58301	514.76971	28.49160	582.48541	516.56226	
24	0.230	-256.63788	19.75828	-306.56024	156.78458	18.67021	-303.21759	-258.01270	14.84487	334.86212	145.81735	18.13478	304.12836	-159.51518	1219.04163	-438.46793	-132.97649	587.53076	-431.96072	27.13855	587.42664	-432.43588	-129.64732	588.62305	514.75885	28.32549	582.28583	515.82135	
